HIERARCHY
ROOT hip
{
  OFFSET 0 0 0
  CHANNELS 6 Xposition Yposition Zposition Zrotation Yrotation Xrotation
  JOINT abdomen
  {
    OFFSET 0 20.6881 -0.73152
    CHANNELS 3 Zrotation Xrotation Yrotation
    JOINT chest
    {
      OFFSET 0 11.7043 -0.48768
      CHANNELS 3 Zrotation Xrotation Yrotation
      JOINT neck
      {
        OFFSET 0 22.1894 -2.19456
        CHANNELS 3 Zrotation Xrotation Yrotation
        JOINT head
        {
          OFFSET -0.24384 7.07133 1.2192
          CHANNELS 3 Zrotation Xrotation Yrotation
          JOINT leftEye
          {
            OFFSET 4.14528 8.04674 8.04672
            CHANNELS 3 Zrotation Xrotation Yrotation
            End Site
            {
              OFFSET 1 0 0
            }
          }
          JOINT rightEye
          {
            OFFSET -3.6576 8.04674 8.04672
            CHANNELS 3 Zrotation Xrotation Yrotation
            End Site
            {
              OFFSET 1 0 0
            }
          }
        }
      }
      JOINT rCollar
      {
        OFFSET -2.68224 19.2634 -4.8768
        CHANNELS 3 Zrotation Xrotation Yrotation
        JOINT rShldr
        {
          OFFSET -8.77824 -1.95073 1.46304
          CHANNELS 3 Zrotation Xrotation Yrotation
          JOINT rForeArm
          {
            OFFSET -28.1742 -1.7115 0.48768
            CHANNELS 3 Zrotation Xrotation Yrotation
            JOINT rHand
            {
              OFFSET -22.5879 0.773209 7.07136
              CHANNELS 3 Zrotation Xrotation Yrotation
              JOINT rThumb1
              {
                OFFSET -1.2192 -0.487915 3.41376
                CHANNELS 3 Zrotation Xrotation Yrotation
                JOINT rThumb2
                {
                  OFFSET -3.37035 -0.52449 3.41376
                  CHANNELS 3 Zrotation Xrotation Yrotation
                  End Site
                  {
                    OFFSET -1.78271 -1.18214 1.43049
                  }
                }
              }
              JOINT rIndex1
              {
                OFFSET -7.75947 0.938293 5.60832
                CHANNELS 3 Zrotation Xrotation Yrotation
                JOINT rIndex2
                {
                  OFFSET -2.54057 -0.884171 1.56538
                  CHANNELS 3 Zrotation Xrotation Yrotation
                  End Site
                  {
                    OFFSET -1.62519 -0.234802 1.16502
                  }
                }
              }
              JOINT rMid1
              {
                OFFSET -8.24714 1.18213 3.41376
                CHANNELS 3 Zrotation Xrotation Yrotation
                JOINT rMid2
                {
                  OFFSET -3.10165 -0.590103 1.0647
                  CHANNELS 3 Zrotation Xrotation Yrotation
                  End Site
                  {
                    OFFSET -2.48547 -0.328903 0.83742
                  }
                }
              }
              JOINT rRing1
              {
                OFFSET -8.82822 0.546677 1.51678
                CHANNELS 3 Zrotation Xrotation Yrotation
                JOINT rRing2
                {
                  OFFSET -2.60934 -0.819778 -0.0198488
                  CHANNELS 3 Zrotation Xrotation Yrotation
                  End Site
                  {
                    OFFSET -2.33842 -0.294052 0.168128
                  }
                }
              }
              JOINT rPinky1
              {
                OFFSET -8.27202 -0.0477905 -0.4584
                CHANNELS 3 Zrotation Xrotation Yrotation
                JOINT rPinky2
                {
                  OFFSET -1.82734 -0.647385 -0.700984
                  CHANNELS 3 Zrotation Xrotation Yrotation
                  End Site
                  {
                    OFFSET -1.69225 -0.51767 -0.607171
                  }
                }
              }
            }
          }
        }
      }
      JOINT lCollar
      {
        OFFSET 2.68224 19.2634 -4.8768
        CHANNELS 3 Zrotation Xrotation Yrotation
        JOINT lShldr
        {
          OFFSET 8.77824 -1.95073 1.46304
          CHANNELS 3 Zrotation Xrotation Yrotation
          JOINT lForeArm
          {
            OFFSET 28.1742 -1.7115 0.48768
            CHANNELS 3 Zrotation Xrotation Yrotation
            JOINT lHand
            {
              OFFSET 22.5879 0.773209 7.07136
              CHANNELS 3 Zrotation Xrotation Yrotation
              JOINT lThumb1
              {
                OFFSET 1.2192 -0.487915 3.41376
                CHANNELS 3 Zrotation Xrotation Yrotation
                JOINT lThumb2
                {
                  OFFSET 3.37035 -0.52449 3.41376
                  CHANNELS 3 Zrotation Xrotation Yrotation
                  End Site
                  {
                    OFFSET 1.78271 -1.18214 1.43049
                  }
                }
              }
              JOINT lIndex1
              {
                OFFSET 7.75947 0.938293 5.60832
                CHANNELS 3 Zrotation Xrotation Yrotation
                JOINT lIndex2
                {
                  OFFSET 2.54057 -0.884171 1.56538
                  CHANNELS 3 Zrotation Xrotation Yrotation
                  End Site
                  {
                    OFFSET 1.62519 -0.234802 1.16502
                  }
                }
              }
              JOINT lMid1
              {
                OFFSET 8.24714 1.18213 3.41376
                CHANNELS 3 Zrotation Xrotation Yrotation
                JOINT lMid2
                {
                  OFFSET 3.10165 -0.590103 1.0647
                  CHANNELS 3 Zrotation Xrotation Yrotation
                  End Site
                  {
                    OFFSET 2.48547 -0.328903 0.83742
                  }
                }
              }
              JOINT lRing1
              {
                OFFSET 8.82822 0.546677 1.51678
                CHANNELS 3 Zrotation Xrotation Yrotation
                JOINT lRing2
                {
                  OFFSET 2.60934 -0.819778 -0.0198488
                  CHANNELS 3 Zrotation Xrotation Yrotation
                  End Site
                  {
                    OFFSET 2.33842 -0.294052 0.168128
                  }
                }
              }
              JOINT lPinky1
              {
                OFFSET 8.27202 -0.0477905 -0.4584
                CHANNELS 3 Zrotation Xrotation Yrotation
                JOINT lPinky2
                {
                  OFFSET 1.82734 -0.647385 -0.700984
                  CHANNELS 3 Zrotation Xrotation Yrotation
                  End Site
                  {
                    OFFSET 1.69225 -0.51767 -0.607171
                  }
                }
              }
            }
          }
        }
      }
    }
  }
  JOINT rButtock
  {
    OFFSET -8.77824 4.35084 1.2192
    CHANNELS 3 Zrotation Xrotation Yrotation
    JOINT rThigh
    {
      OFFSET 0 -1.70687 -2.19456
      CHANNELS 3 Zrotation Xrotation Yrotation
      JOINT rShin
      {
        OFFSET 0 -36.8199 0.73152
        CHANNELS 3 Zrotation Xrotation Yrotation
        JOINT rFoot
        {
          OFFSET 0.73152 -45.1104 -5.12064
          CHANNELS 3 Zrotation Xrotation Yrotation
          End Site
          {
            OFFSET -1.1221 -3.69964 12.103
          }
        }
      }
    }
  }
  JOINT lButtock
  {
    OFFSET 8.77824 4.35084 1.2192
    CHANNELS 3 Zrotation Xrotation Yrotation
    JOINT lThigh
    {
      OFFSET 0 -1.70687 -2.19456
      CHANNELS 3 Zrotation Xrotation Yrotation
      JOINT lShin
      {
        OFFSET 0 -36.8199 0.73152
        CHANNELS 3 Zrotation Xrotation Yrotation
        JOINT lFoot
        {
          OFFSET -0.73152 -45.1104 -5.12064
          CHANNELS 3 Zrotation Xrotation Yrotation
          End Site
          {
            OFFSET 1.1221 -3.69964 12.103
          }
        }
      }
    }
  }
}
MOTION
Frames:	4
Frame Time:	0.00833333
-8.37686 82.7156 -155.606 0.0 0.0 0.0 -1.70024 -0.00276348 -0.0463336 -0.469059 0.00196688 -0.0812268 1.89021e-14 7.95139e-16 4.96962e-17 5.71754e-14 9.54166e-15 2.20527e-16 -0.0 0.0 0.0 -0.0 0.0 0.0 9.59023e-15 -2.05773e-17 9.93923e-17 2.02003e-13 -3.47873e-16 2.38542e-15 3.43371e-12 -1.04302e-12 -2.22639e-14 3.93534e-11 9.68628e-13 2.63986e-13 9.28128e-11 -1.63316e-13 5.12069e-13 1.60268e-10 -2.8625e-13 8.65111e-13 9.28161e-11 -1.65389e-13 4.99347e-13 7.73091 5.47488 0.417314 9.28117e-11 -1.63302e-13 5.05708e-13 2.90554 0.965183 0.102902 9.28183e-11 -1.63699e-13 5.01732e-13 10.2786 0.731801 0.0259123 9.28076e-11 -1.6022e-13 5.02528e-13 2.22167 -0.733487 -0.20892 9.49371e-15 -1.84419e-17 -4.96962e-17 1.97269e-13 -7.64079e-16 1.98785e-16 3.44414e-12 1.01042e-12 9.54166e-15 3.93448e-11 -1.11213e-12 2.29e-13 9.282e-11 -2.18106e-13 5.05708e-13 1.60304e-10 -3.78486e-13 8.81809e-13 9.28173e-11 -2.19061e-13 5.12069e-13 -7.73091 5.47488 -0.417314 9.28207e-11 -2.18365e-13 5.02528e-13 -2.90554 0.965183 -0.102902 9.28093e-11 -2.18166e-13 5.1366e-13 -10.2786 0.731801 -0.0259123 9.28223e-11 -2.15483e-13 5.1843e-13 -2.22167 -0.733487 0.20892 -2.03217e-16 0.0 -3.88251e-19 -0.814889 -1.92421 -0.00353863 -0.00895721 -2.0786 -0.0737981 -0.474911 3.99777 0.134814 2.03217e-16 0.0 3.88251e-19 -1.77322 -6.84763 0.169512 -0.00326906 6.83977 -0.0864567 0.504327 0.00291365 -0.0573123
-9.98622 78.1982 -157.265 -3.8874 -5.2989 3.2024 1.17559 4.99867 -0.681824 0.568122 -2.3856 0.0379639 -0.765579 -0.310541 -0.682528 0.727438 -2.54218 -1.06353 -0.0 0.0 0.0 -0.0 0.0 0.0 -4.47059e-15 1.40889e-14 2.59577e-14 22.409 12.3304 -2.08131 -22.652 -20.5283 14.9551 0.0498983 -4.96263 -0.688066 3.12817e-11 1.2992e-09 1.545e-10 5.13243e-11 2.27832e-09 2.66799e-10 3.12842e-11 1.2992e-09 1.54492e-10 7.73091 5.47488 0.417314 3.12806e-11 1.2992e-09 1.54493e-10 2.90554 0.965183 0.102902 3.12865e-11 1.2992e-09 1.54494e-10 10.2786 0.731801 0.0259123 3.12745e-11 1.2992e-09 1.54496e-10 2.22167 -0.733487 -0.20892 -4.52042e-15 1.40855e-14 2.57962e-14 -23.0461 11.7365 3.53265 17.2202 -14.6984 -14.9888 -0.160445 -8.90661 1.19784 -5.66568e-11 -5.28357e-10 -2.90334e-10 -9.08168e-11 -8.97699e-10 -5.03937e-10 -5.66654e-11 -5.28362e-10 -2.90328e-10 -7.73091 5.47488 -0.417314 -5.66615e-11 -5.28362e-10 -2.9034e-10 -2.90554 0.965183 -0.102902 -5.66726e-11 -5.28362e-10 -2.90332e-10 -10.2786 0.731801 -0.0259123 -5.66546e-11 -5.28355e-10 -2.9033e-10 -2.22167 -0.733487 0.20892 -2.03217e-16 0.0 -3.88251e-19 3.82365 -11.1644 1.87899 -0.164492 15.3177 0.0698315 -0.90405 -1.73751 -3.43908 2.03217e-16 0.0 3.88251e-19 2.29631 -15.6308 2.92958 0.00605902 34.485 -0.458313 -0.181902 9.71071 -4.16767
-10.1416 77.6458 -154.89 -4.4409 -4.6627 3.5255 4.33728 10.2955 -1.39121 1.68108 -4.89917 0.160159 -1.5817 -0.646976 -1.39767 1.38204 -5.21522 -2.18326 -0.0 0.0 0.0 -0.0 0.0 0.0 -1.89835e-14 2.91185e-14 5.28954e-14 47.2152 25.2743 -4.75286 -32.9292 -37.0769 37.1498 -0.0287659 -10.1826 -1.4295 -3.99298e-11 3.4314e-09 2.91796e-10 -7.41224e-11 6.00352e-09 5.03749e-10 -3.99283e-11 3.4314e-09 2.91792e-10 7.73091 5.47488 0.417314 -3.99309e-11 3.4314e-09 2.91787e-10 2.90554 0.965183 0.102902 -3.99258e-11 3.4314e-09 2.91793e-10 10.2786 0.731801 0.0259123 -3.99393e-11 3.4314e-09 2.91797e-10 2.22167 -0.733487 -0.20892 -1.89824e-14 2.91088e-14 5.27214e-14 -49.0907 23.9728 7.69905 26.602 -26.705 -33.8028 0.0942668 -18.2917 2.56191 -1.99074e-10 -1.05199e-09 -5.90035e-10 -3.29587e-10 -1.78681e-09 -1.02379e-09 -1.99089e-10 -1.052e-09 -5.9003e-10 -7.73091 5.47488 -0.417314 -1.99085e-10 -1.052e-09 -5.90045e-10 -2.90554 0.965183 -0.102902 -1.99096e-10 -1.052e-09 -5.90039e-10 -10.2786 0.731801 -0.0259123 -1.99072e-10 -1.05198e-09 -5.90041e-10 -2.22167 -0.733487 0.20892 -2.03217e-16 0.0 -3.88251e-19 9.43453 -21.023 4.07099 -0.445718 33.7352 0.255865 -2.12096 -7.70835 -7.23611 2.03217e-16 0.0 3.88251e-19 7.57725 -24.6609 6.155 0.880854 63.6628 -1.54738 0.701041 19.8958 -8.91985
-10.0878 77.1252 -152.423 -4.2261 -4.1851 3.641 7.27016 14.9937 -2.01361 2.67246 -7.16066 0.278418 -2.31893 -0.931095 -2.04782 1.8972 -7.61598 -3.21584 -0.0 0.0 0.0 -0.0 0.0 0.0 -3.25922e-14 4.2308e-14 7.76743e-14 70.4736 36.7708 -7.62302 -30.657 -41.7469 63.6484 -0.218354 -14.8792 -2.12784 -9.17805e-11 3.89792e-09 4.62477e-10 -1.66563e-10 6.83554e-09 7.98666e-10 -9.17798e-11 3.89793e-09 4.62476e-10 7.73091 5.47488 0.417314 -9.17816e-11 3.89793e-09 4.62468e-10 2.90554 0.965183 0.102902 -9.1777e-11 3.89792e-09 4.62478e-10 10.2786 0.731801 0.0259123 -9.17917e-11 3.89793e-09 4.62484e-10 2.22167 -0.733487 -0.20892 -3.25487e-14 4.22934e-14 7.7488e-14 -74.2405 34.6147 12.6413 28.2553 -31.2242 -53.5517 0.748041 -26.6702 3.97352 -3.5561e-10 -1.58463e-09 -8.72013e-10 -5.93059e-10 -2.69234e-09 -1.51357e-09 -3.55631e-10 -1.58465e-09 -8.72008e-10 -7.73091 5.47488 -0.417314 -3.55626e-10 -1.58465e-09 -8.72025e-10 -2.90554 0.965183 -0.102902 -3.55637e-10 -1.58465e-09 -8.72023e-10 -10.2786 0.731801 -0.0259123 -3.55608e-10 -1.58463e-09 -8.72027e-10 -2.22167 -0.733487 0.20892 -2.03217e-16 0.0 -3.88251e-19 15.1542 -29.5101 6.36597 -0.843774 50.1091 0.545048 -3.93756 -12.9888 -10.8626 2.03217e-16 0.0 3.88251e-19 13.4021 -32.8788 9.69059 76.2647 89.0131 -76.9997 3.07422 28.4803 -13.9216
